<?xml version="1.0" standalone="no"?>
<!DOCTYPE svg PUBLIC "-//W3C//DTD SVG 20010904//EN"
 "http://www.w3.org/TR/2001/REC-SVG-20010904/DTD/svg10.dtd">
<svg version="1.0" xmlns="http://www.w3.org/2000/svg"
 width="227.000000pt" height="35.000000pt" viewBox="0 0 227.000000 35.000000"
 preserveAspectRatio="xMidYMid meet">

<g transform="translate(0.000000,35.000000) scale(0.100000,-0.100000)"
fill="#000000" stroke="none">
<path d="M0 234 l0 -115 24 28 c23 26 30 28 119 31 88 4 96 2 106 -17 11 -20
9 -21 -33 -21 -84 0 -126 -32 -91 -70 21 -23 82 -34 117 -21 15 6 35 22 44 36
16 24 15 29 -5 88 -11 35 -21 77 -21 93 0 30 28 65 60 77 8 3 -60 6 -152 6
l-168 1 0 -116z"/>
<path d="M523 332 c22 -24 21 -65 -1 -85 -19 -17 -68 -22 -88 -9 -17 11 -36
51 -29 62 9 15 -21 12 -34 -3 -8 -11 -5 -32 15 -87 38 -111 19 -163 -73 -195
-33 -12 102 -14 960 -15 l997 0 0 82 c0 64 -3 79 -12 70 -8 -8 -45 -12 -101
-12 -85 0 -89 -1 -84 -21 9 -32 -13 -78 -44 -94 -35 -19 -129 -19 -154 -1 -16
12 -21 11 -33 -1 -10 -10 -36 -13 -96 -11 l-81 3 1 32 2 31 -44 -33 -44 -34
-323 2 -322 2 1 32 2 31 -44 -34 -44 -33 -178 0 c-199 1 -212 5 -212 67 0 25
8 42 34 68 l34 34 101 0 c56 0 101 -2 101 -3 0 -2 -9 -30 -20 -62 -11 -32 -20
-60 -20 -62 0 -1 22 -3 48 -3 l48 0 20 62 20 63 47 3 c50 3 53 -1 37 -44 -12
-30 -14 -31 53 23 17 14 42 23 63 23 29 0 34 -3 34 -24 0 -13 -7 -42 -15 -65
l-14 -41 43 0 c41 0 43 2 54 39 15 49 15 51 -4 51 -27 0 -11 33 26 53 19 10
45 33 58 52 17 27 29 35 52 35 l29 0 -14 -41 c-20 -55 -19 -59 10 -59 14 0 25
-4 25 -8 0 -15 -24 -32 -46 -32 -16 0 -25 -9 -33 -31 -19 -55 -16 -59 42 -59
l53 0 20 63 20 62 47 3 c26 2 47 -1 47 -6 0 -5 -7 -29 -15 -52 -23 -65 -21
-70 28 -70 l43 0 20 63 20 62 47 3 c50 3 53 -1 37 -44 -12 -30 -14 -31 53 23
17 14 42 23 63 23 29 0 34 -3 34 -24 0 -13 -7 -42 -15 -65 l-14 -41 38 0 c38
0 39 1 38 36 -1 29 5 42 31 65 l32 29 185 0 185 0 0 85 0 85 -882 0 c-853 0
-881 -1 -865 -18z m959 -9 c22 -20 23 -61 1 -85 -35 -39 -123 -10 -123 42 0
50 82 80 122 43z"/>
<path d="M571 109 c-14 -41 -14 -46 4 -53 15 -5 22 4 39 62 6 18 3 22 -12 22
-13 0 -24 -11 -31 -31z"/>
<path d="M1936 108 c-9 -22 -10 -37 -3 -46 16 -20 26 -14 42 24 20 47 19 54
-5 54 -13 0 -25 -11 -34 -32z"/>
<path d="M0 41 l0 -41 63 0 62 1 -40 14 c-22 8 -50 26 -62 40 l-23 26 0 -40z"/>
</g>
</svg>
