<?xml version="1.0" encoding="UTF-8"?>
<svg xmlns="http://www.w3.org/2000/svg" viewBox="0 -220 904.58 300" aria-label="Santino logo Magneto">
  <path d="M219.44,-113.78 Q219.44,-104.09 Q211.75,-97.25 Q204.09,-90.44 Q193.38,-90.44 Q182.62,-90.44 Q175.00,-97.25 Q167.38,-104.09 Q167.38,-113.78 Q167.38,-116.03 Q168.16,-119.62 Q163.78,-120.03 Q162.59,-120.03 Q147.75,-120.03 Q147.75,-107.62 Q147.75,-101.28 Q156.50,-79.19 Q165.25,-57.12 Q165.25,-44.62 Q165.25,-17.88 Q135.66,-4.50 Q113.56,5.38 Q84.00,5.38 Q56.94,5.38 Q36.03,-2.16 Q6.66,-12.69 Q6.66,-34.56 Q6.66,-66.41 Q60.84,-66.41 L98.06,-66.41 L105.19,-50.78 L76.19,-50.78 Q65.25,-50.78 Q57.12,-46.97 Q46.59,-42.00 Q46.59,-32.22 Q46.59,-21.19 Q61.12,-14.94 Q72.38,-10.16 Q85.16,-10.16 Q101.38,-10.16 Q112.22,-17.28 Q124.81,-25.50 Q124.81,-40.81 Q124.81,-51.38 Q116.78,-71.09 Q108.78,-90.81 Q108.78,-101.75 Q108.78,-137.41 Q169.44,-137.41 L193.56,-137.41 Q203.53,-137.41 Q211.34,-130.66 Q219.44,-123.53 Q219.44,-113.78 Z M318.77,-15.62 Q314.08,-0.00 Q294.83,-0.00 L257.83,-0.00 Q241.98,-0.00 Q241.98,-10.16 Q231.36,1.97 Q215.83,1.97 Q204.39,1.97 Q197.27,-5.06 Q190.14,-12.12 Q190.14,-23.44 Q190.14,-43.84 Q205.77,-55.66 Q219.92,-66.41 Q240.83,-66.41 L296.58,-66.41 L278.23,-15.62 L318.77,-15.62 Z M255.77,-50.78 L234.17,-50.78 L227.36,-28.03 Q226.77,-25.88 Q226.77,-24.12 Q226.77,-15.62 Q243.36,-15.62 L255.77,-50.78 Z M452.34,-15.62 Q449.80,-7.03 Q441.12,-2.94 Q434.96,-0.00 Q427.93,-0.00 L388.96,-0.00 Q375.59,-0.00 Q375.59,-8.78 Q375.59,-11.72 Q376.96,-15.62 L384.37,-36.62 L350.77,-8.22 Q338.96,-0.00 Q331.34,-0.00 L313.37,-0.00 L336.71,-66.41 L371.96,-66.41 L360.93,-35.16 L390.71,-59.56 Q402.84,-69.44 Q416.99,-69.03 Q426.55,-68.66 Q426.55,-58.88 Q426.55,-55.28 Q424.99,-50.78 L412.40,-15.62 L452.34,-15.62 Z M537.98,-15.62 Q533.39,-0.00 Q513.58,-0.00 L463.77,-0.00 Q449.33,-0.00 Q449.33,-10.16 Q449.33,-12.69 Q450.39,-15.62 L462.80,-50.78 L446.77,-50.78 L452.92,-66.41 Q470.02,-70.81 Q478.33,-77.62 Q487.70,-85.34 Q498.33,-105.56 L517.39,-105.56 L503.61,-66.41 L528.80,-66.41 Q522.77,-50.78 Q504.20,-50.78 L497.77,-50.78 L485.55,-15.62 L537.98,-15.62 Z M605.36,-106.44 Q605.36,-96.69 Q597.80,-89.84 Q590.24,-83.00 Q579.58,-83.00 Q568.74,-83.00 Q561.18,-89.84 Q553.61,-96.69 Q553.61,-106.44 Q553.61,-116.12 Q561.18,-122.94 Q568.74,-129.78 Q579.58,-129.78 Q590.24,-129.78 Q597.80,-122.94 Q605.36,-116.12 Q605.36,-106.44 Z M612.39,-15.62 Q609.86,-7.03 Q601.86,-2.94 Q596.08,-0.00 Q589.36,-0.00 L550.77,-0.00 Q536.80,-0.00 Q536.80,-11.72 Q536.80,-15.03 Q538.18,-18.84 L555.18,-66.41 L590.61,-66.41 L572.55,-15.62 L612.39,-15.62 Z M746.18,-15.62 Q743.65,-7.03 Q734.96,-2.94 Q728.81,-0.00 Q721.78,-0.00 L682.81,-0.00 Q669.43,-0.00 Q669.43,-8.78 Q669.43,-11.72 Q670.81,-15.62 L678.21,-36.62 L644.62,-8.22 Q632.81,-0.00 Q625.18,-0.00 L607.21,-0.00 L630.56,-66.41 L665.81,-66.41 L654.78,-35.16 L684.56,-59.56 Q696.68,-69.44 Q710.84,-69.03 Q720.40,-68.66 Q720.40,-58.88 Q720.40,-55.28 Q718.84,-50.78 L706.25,-15.62 L746.18,-15.62 Z M911.24,-66.41 Q907.33,-50.78 Q887.80,-50.78 L826.68,-50.78 Q829.89,-48.62 Q831.93,-42.91 Q833.99,-37.22 Q833.58,-33.00 Q832.24,-16.69 Q819.24,-7.44 Q806.83,1.47 Q787.02,1.56 Q763.96,1.75 Q751.55,-7.53 Q740.52,-15.72 Q740.52,-29.09 Q740.52,-31.75 Q741.02,-34.38 Q743.55,-49.12 Q755.68,-57.53 Q768.55,-66.41 Q790.05,-66.41 L911.24,-66.41 Z M804.80,-50.78 L782.43,-50.78 L773.64,-25.78 Q772.96,-23.84 Q772.96,-22.06 Q772.96,-13.69 Q788.58,-13.69 Q790.43,-13.69 Q791.80,-13.78 L804.80,-50.78 Z" fill="#E6E6E6"/>
</svg>
